<svg width="12" height="14" viewBox="0 0 12 14" fill="none" xmlns="http://www.w3.org/2000/svg">
<path d="M1.75736 1.87251C4.1005 -0.470627 7.89951 -0.470627 10.2426 1.87251C12.5858 4.21566 12.5858 8.01467 10.2426 10.3578L9.42472 11.1667C8.82184 11.7584 8.03967 12.5191 7.07779 13.449C6.47678 14.0302 5.52323 14.0301 4.92229 13.4489L2.51663 11.1088C2.21429 10.812 1.96121 10.5616 1.75736 10.3578C-0.585786 8.01467 -0.585786 4.21566 1.75736 1.87251ZM9.51175 2.60339C7.57227 0.663895 4.42772 0.663895 2.48823 2.60339C0.548737 4.54288 0.548737 7.68743 2.48823 9.6269L3.51294 10.6381C4.07723 11.1903 4.78661 11.8797 5.64086 12.7059C5.84117 12.8996 6.15898 12.8997 6.35936 12.706L8.69871 10.431C9.02181 10.1138 9.2929 9.84575 9.51175 9.6269C11.4512 7.68743 11.4512 4.54288 9.51175 2.60339ZM6.00001 4.23649C7.14229 4.23649 8.06827 5.1625 8.06827 6.3048C8.06827 7.44708 7.14229 8.37306 6.00001 8.37306C4.85772 8.37306 3.9317 7.44708 3.9317 6.3048C3.9317 5.1625 4.85772 4.23649 6.00001 4.23649ZM6.00001 5.27011C5.42856 5.27011 4.96529 5.73335 4.96529 6.3048C4.96529 6.87625 5.42856 7.33945 6.00001 7.33945C6.57146 7.33945 7.03465 6.87625 7.03465 6.3048C7.03465 5.73335 6.57146 5.27011 6.00001 5.27011Z" fill="#C1C2C2"/>
</svg>
