<svg width="12" height="12" viewBox="0 0 12 12" fill="none" xmlns="http://www.w3.org/2000/svg">
<path d="M10.0046 0.234372C10.1237 0.0162481 10.397 -0.0639846 10.615 0.0551734C10.8063 0.15975 11.0675 0.360779 11.3249 0.673519C11.584 0.988336 11.7832 1.3598 11.8983 1.78916C12.0658 2.41501 12.015 3.0106 11.829 3.53965C11.764 3.72472 11.6964 3.86284 11.645 3.94733C11.5159 4.15966 11.2392 4.22705 11.027 4.09784C10.8325 3.9794 10.7597 3.73689 10.8484 3.53374L10.8766 3.47944C10.8971 3.4456 10.9375 3.36301 10.9804 3.24099C11.1103 2.87163 11.1457 2.45663 11.0294 2.02208C10.9491 1.72252 10.8109 1.46494 10.6304 1.24566C10.4541 1.0313 10.2815 0.898562 10.1837 0.845074C9.96567 0.725916 9.88549 0.452497 10.0046 0.234372ZM7.61293 7.96702C7.54864 7.72694 7.30198 7.58449 7.06204 7.64881L5.90354 7.9594L5.84567 7.97914C5.64129 8.06483 5.52657 8.2905 5.58552 8.51054C5.64981 8.75062 5.89641 8.89314 6.13635 8.82881L7.29485 8.51822L7.35278 8.49842C7.5571 8.4128 7.67182 8.18712 7.61293 7.96702ZM7.85659 2.19543C7.6636 1.47502 6.92339 1.04766 6.20345 1.24103L3.44945 1.98075C2.73003 2.17399 2.3032 2.91398 2.49588 3.63393L4.14774 9.80623C4.34048 10.5264 5.08022 10.954 5.80004 10.7612L8.55608 10.0231C9.27614 9.83029 9.70348 9.08977 9.5105 8.36935L7.85659 2.19543ZM6.43668 2.11033C6.67662 2.04588 6.92339 2.18833 6.98774 2.42846L8.64165 8.60241C8.706 8.84249 8.56351 9.08935 8.32351 9.15362L5.56741 9.89174C5.32747 9.95601 5.08094 9.81349 5.01665 9.57341L3.36481 3.40111C3.30059 3.16112 3.44287 2.91446 3.68267 2.85005L6.43668 2.11033ZM9.92873 1.38C9.73113 1.22938 9.44891 1.26755 9.29839 1.46526C9.14786 1.66297 9.186 1.94535 9.3836 2.09597L9.40333 2.11279C9.42726 2.13471 9.46247 2.17143 9.49815 2.21852C9.54552 2.28104 9.57929 2.34524 9.59572 2.40647C9.62001 2.49729 9.61383 2.61004 9.58564 2.71969C9.58265 2.73127 9.57983 2.74148 9.57731 2.7501L9.54732 2.83915C9.48999 3.05327 9.59824 3.28217 9.80825 3.37018C10.0374 3.46618 10.3009 3.35816 10.3969 3.1289C10.4057 3.10768 10.4156 3.08136 10.4258 3.05036L10.4569 2.94374C10.5203 2.6968 10.5347 2.43535 10.4646 2.17347C10.4154 1.98995 10.3282 1.82419 10.2151 1.67484C10.1123 1.53918 10.0087 1.44098 9.92873 1.38ZM0.326146 8.04616C0.450344 7.83093 0.72542 7.75718 0.940545 7.88145C1.13774 7.9954 1.21611 8.23614 1.13214 8.4413L1.07508 8.55717C1.05665 8.59845 1.03391 8.65557 1.0103 8.72662C0.887093 9.09745 0.856083 9.51701 0.974338 9.95859C1.05479 10.259 1.19221 10.5198 1.37112 10.7438C1.52556 10.9371 1.67704 11.0674 1.77849 11.135L1.81876 11.1602C2.03383 11.2846 2.10742 11.5599 1.98313 11.7751C1.85883 11.9902 1.58372 12.0639 1.36865 11.9395C1.1802 11.8306 0.922392 11.6236 0.668461 11.3058C0.415027 10.9885 0.219483 10.6174 0.105444 10.1916C-0.062406 9.56477 -0.01843 8.96976 0.156676 8.44268C0.216455 8.26278 0.278668 8.12849 0.326146 8.04616ZM2.19425 8.61009C1.96478 8.51492 1.70165 8.62395 1.60655 8.85353C1.59782 8.87459 1.58812 8.90076 1.57809 8.93154L1.54763 9.03733C1.48508 9.28371 1.47121 9.54479 1.54127 9.80647C1.5902 9.98913 1.67668 10.1544 1.78872 10.3036C1.89091 10.4396 1.99389 10.5382 2.07343 10.5995C2.27024 10.7511 2.55265 10.7145 2.70421 10.5175C2.85579 10.3206 2.81912 10.038 2.62232 9.8864L2.60256 9.86936C2.57863 9.84722 2.54344 9.81019 2.50778 9.76273C2.46051 9.69984 2.42669 9.63522 2.41017 9.57347C2.38562 9.48184 2.39164 9.36868 2.4195 9.25893C2.42241 9.24747 2.42519 9.23732 2.42766 9.2288L2.45713 9.14018C2.51367 8.92584 2.40461 8.69734 2.19425 8.61009Z" fill="#C1C2C2"/>
</svg>
