<svg width="12" height="13" viewBox="0 0 12 13" fill="none" xmlns="http://www.w3.org/2000/svg">
<path d="M6 0.362793C9.3138 0.362793 12 3.04899 12 6.36279C12 9.67659 9.3138 12.3628 6 12.3628C2.6862 12.3628 0 9.67659 0 6.36279C0 3.04899 2.6862 0.362793 6 0.362793ZM6 1.56279C4.72696 1.56279 3.50606 2.06851 2.60589 2.96868C1.70571 3.86886 1.2 5.08975 1.2 6.36279C1.2 7.63583 1.70571 8.85673 2.60589 9.75691C3.50606 10.6571 4.72696 11.1628 6 11.1628C7.27304 11.1628 8.49394 10.6571 9.39411 9.75691C10.2943 8.85673 10.8 7.63583 10.8 6.36279C10.8 5.08975 10.2943 3.86886 9.39411 2.96868C8.49394 2.06851 7.27304 1.56279 6 1.56279ZM6 2.76279C6.14696 2.76281 6.2888 2.81677 6.39862 2.91442C6.50844 3.01208 6.57861 3.14664 6.5958 3.29259L6.6 3.36279V6.11439L8.2242 7.73859C8.33181 7.84657 8.39428 7.99145 8.39894 8.14382C8.40359 8.29619 8.35007 8.44462 8.24925 8.55896C8.14843 8.6733 8.00787 8.74498 7.85612 8.75943C7.70436 8.77389 7.5528 8.73004 7.4322 8.63679L7.3758 8.58699L5.5758 6.78699C5.48255 6.69366 5.42266 6.57219 5.4054 6.44139L5.4 6.36279V3.36279C5.4 3.20366 5.46321 3.05105 5.57574 2.93853C5.68826 2.82601 5.84087 2.76279 6 2.76279Z" fill="#C1C2C2"/>
</svg>
