<svg width="12" height="12" viewBox="0 0 12 12" fill="none" xmlns="http://www.w3.org/2000/svg">
<path d="M2.5 2.5C2.22386 2.5 2 2.72386 2 3C2 3.27614 2.22386 3.5 2.5 3.5H9.5C9.77613 3.5 10 3.27614 10 3C10 2.72386 9.77613 2.5 9.5 2.5H2.5ZM2.16667 0C0.970047 0 0 0.970047 0 2.16667V9.83333C0 11.0299 0.970047 12 2.16667 12H9.83333C11.0299 12 12 11.0299 12 9.83333V2.16667C12 0.970047 11.0299 0 9.83333 0H2.16667ZM1 2.16667C1 1.52233 1.52233 1 2.16667 1H9.83333C10.4777 1 11 1.52233 11 2.16667V9.83333C11 10.4777 10.4777 11 9.83333 11H2.16667C1.52233 11 1 10.4777 1 9.83333V2.16667Z" fill="#C1C2C2"/>
</svg>
