<svg width="20" height="21" viewBox="0 0 20 21" fill="none" xmlns="http://www.w3.org/2000/svg">
<path d="M2.78872 13.1901C2.11056 12.3093 1.77148 11.8681 1.77148 10.5604C1.77148 9.25197 2.11056 8.81236 2.78872 7.93075C4.14265 6.17232 6.41329 4.17773 9.74984 4.17773C13.0864 4.17773 15.357 6.17232 16.7109 7.93075C17.3891 8.81316 17.7282 9.25276 17.7282 10.5604C17.7282 11.8689 17.3891 12.3085 16.7109 13.1901C15.357 14.9485 13.0864 16.9431 9.74984 16.9431C6.41329 16.9431 4.14265 14.9485 2.78872 13.1901Z" stroke="#A3A4A4" stroke-width="1.36772"/>
<path d="M12.1425 10.5605C12.1425 11.1953 11.8903 11.8041 11.4414 12.253C10.9926 12.7018 10.3838 12.954 9.74897 12.954C9.11418 12.954 8.50538 12.7018 8.05651 12.253C7.60764 11.8041 7.35547 11.1953 7.35547 10.5605C7.35547 9.9257 7.60764 9.3169 8.05651 8.86803C8.50538 8.41916 9.11418 8.16699 9.74897 8.16699C10.3838 8.16699 10.9926 8.41916 11.4414 8.86803C11.8903 9.3169 12.1425 9.9257 12.1425 10.5605Z" stroke="#A3A4A4" stroke-width="1.36772"/>
</svg>
