<svg width="23" height="23" viewBox="0 0 23 23" fill="none" xmlns="http://www.w3.org/2000/svg">
<path d="M17.4724 8.82506C17.4724 7.98688 17.3073 7.1569 16.9865 6.38252C16.6658 5.60814 16.1956 4.90451 15.603 4.31183C15.0103 3.71914 14.3066 3.249 13.5323 2.92824C12.7579 2.60748 11.9279 2.44238 11.0897 2.44238C10.2515 2.44238 9.42155 2.60748 8.64717 2.92824C7.87278 3.249 7.16916 3.71914 6.57648 4.31183C5.98379 4.90451 5.51364 5.60814 5.19288 6.38252C4.87212 7.1569 4.70703 7.98688 4.70703 8.82506C4.70703 10.0897 5.07996 11.266 5.71458 12.258H5.70729L11.0897 20.6786L16.4721 12.258H16.4658C17.1231 11.2337 17.4725 10.0422 17.4724 8.82506ZM11.0897 11.5605C10.3642 11.5605 9.66846 11.2723 9.15547 10.7593C8.64247 10.2463 8.35428 9.55055 8.35428 8.82506C8.35428 8.09958 8.64247 7.40381 9.15547 6.89082C9.66846 6.37783 10.3642 6.08963 11.0897 6.08963C11.8152 6.08963 12.511 6.37783 13.024 6.89082C13.537 7.40381 13.8251 8.09958 13.8251 8.82506C13.8251 9.55055 13.537 10.2463 13.024 10.7593C12.511 11.2723 11.8152 11.5605 11.0897 11.5605Z" fill="#A3A4A4"/>
</svg>
